G04 #@! TF.FileFunction,Legend,Top*
%FSLAX46Y46*%
G04 Gerber Fmt 4.6, Leading zero omitted, Abs format (unit mm)*
G04 Created by KiCad (PCBNEW 4.0.4+e1-6308~48~ubuntu15.10.1-stable) date Wed Sep 27 09:28:55 2017*
%MOMM*%
%LPD*%
G01*
G04 APERTURE LIST*
%ADD10C,0.150000*%
%ADD11C,0.200000*%
%ADD12C,0.300000*%
%ADD13C,0.100000*%
%ADD14C,0.203200*%
G04 APERTURE END LIST*
D10*
D11*
X120727665Y-78712099D02*
X120155244Y-78611084D01*
X120323603Y-79116160D02*
X119616496Y-78409053D01*
X119885871Y-78139679D01*
X119986886Y-78106007D01*
X120054229Y-78106007D01*
X120155245Y-78139679D01*
X120256260Y-78240694D01*
X120289931Y-78341709D01*
X120289931Y-78409053D01*
X120256260Y-78510068D01*
X119986885Y-78779442D01*
X121838833Y-77062183D02*
X122377581Y-76523435D01*
X122377581Y-77062183D02*
X121838833Y-76523434D01*
X123758123Y-74334771D02*
X123657107Y-74368442D01*
X123556092Y-74469457D01*
X123488748Y-74604145D01*
X123488748Y-74738832D01*
X123522420Y-74839847D01*
X123623435Y-75008206D01*
X123724451Y-75109222D01*
X123892810Y-75210237D01*
X123993825Y-75243908D01*
X124128512Y-75243908D01*
X124263199Y-75176564D01*
X124330543Y-75109221D01*
X124397886Y-74974534D01*
X124397886Y-74907190D01*
X124162184Y-74671488D01*
X124027497Y-74806175D01*
X125711084Y-72987900D02*
X125845771Y-72920556D01*
X125913115Y-72920557D01*
X126014131Y-72954229D01*
X126115146Y-73055244D01*
X126148817Y-73156259D01*
X126148817Y-73223602D01*
X126115146Y-73324618D01*
X125845771Y-73593992D01*
X125138664Y-72886885D01*
X125374367Y-72651183D01*
X125475382Y-72617511D01*
X125542726Y-72617511D01*
X125643741Y-72651183D01*
X125711084Y-72718526D01*
X125744756Y-72819541D01*
X125744756Y-72886885D01*
X125711084Y-72987900D01*
X125475382Y-73223602D01*
X130800000Y-92900000D02*
X135300000Y-92900000D01*
X130700000Y-90200000D02*
X130800000Y-92900000D01*
X123400000Y-90200000D02*
X130700000Y-90200000D01*
X123400000Y-92800000D02*
X123400000Y-90200000D01*
X118600000Y-92900000D02*
X123400000Y-92800000D01*
D12*
X129928572Y-111921429D02*
X131071429Y-111921429D01*
X129128572Y-92007143D02*
X130271429Y-92007143D01*
X129700000Y-92578571D02*
X129700000Y-91435714D01*
X117200126Y-85158504D02*
X117402156Y-85057488D01*
X117654694Y-84804950D01*
X117705202Y-84653427D01*
X117705202Y-84552412D01*
X117654694Y-84400889D01*
X117553679Y-84299874D01*
X117402157Y-84249366D01*
X117301141Y-84249366D01*
X117149619Y-84299874D01*
X116897080Y-84451396D01*
X116745557Y-84501905D01*
X116644542Y-84501904D01*
X116493019Y-84451397D01*
X116392004Y-84350382D01*
X116341497Y-84198859D01*
X116341496Y-84097844D01*
X116392004Y-83946320D01*
X116644541Y-83693782D01*
X116846573Y-83592767D01*
X118311293Y-84148351D02*
X117250633Y-83087691D01*
X117755710Y-83592767D02*
X118361801Y-82986676D01*
X118917385Y-83542259D02*
X117856725Y-82481599D01*
X119422461Y-83037183D02*
X118361801Y-81976523D01*
X118614339Y-81723985D01*
X118816370Y-81622970D01*
X119018401Y-81622969D01*
X119169923Y-81673477D01*
X119422462Y-81825000D01*
X119573984Y-81976523D01*
X119725508Y-82229062D01*
X119776015Y-82380584D01*
X119776015Y-82582615D01*
X119675000Y-82784645D01*
X119422461Y-83037183D01*
X121089213Y-80259264D02*
X121291244Y-80158249D01*
X121392259Y-80158249D01*
X121543782Y-80208756D01*
X121695305Y-80360279D01*
X121745812Y-80511802D01*
X121745813Y-80612817D01*
X121695304Y-80764340D01*
X121291243Y-81168401D01*
X120230583Y-80107741D01*
X120584137Y-79754187D01*
X120735660Y-79703680D01*
X120836676Y-79703680D01*
X120988198Y-79754188D01*
X121089213Y-79855203D01*
X121139721Y-80006725D01*
X121139721Y-80107741D01*
X121089213Y-80259264D01*
X120735660Y-80612817D01*
X122705457Y-79653173D02*
X122654949Y-79804695D01*
X122452919Y-80006725D01*
X122301396Y-80057233D01*
X122149873Y-80006726D01*
X121745812Y-79602665D01*
X121695305Y-79451142D01*
X121745812Y-79299619D01*
X121947842Y-79097588D01*
X122099365Y-79047081D01*
X122250889Y-79097588D01*
X122351904Y-79198604D01*
X121947842Y-79804695D01*
X123412564Y-79047080D02*
X123261041Y-79097589D01*
X123109518Y-79047081D01*
X122200381Y-78137943D01*
X123564086Y-77481345D02*
X124422716Y-78339974D01*
X124473223Y-78491497D01*
X124473224Y-78592513D01*
X124422716Y-78744035D01*
X124271193Y-78895558D01*
X124119671Y-78946066D01*
X124220686Y-78137944D02*
X124170178Y-78289466D01*
X123968148Y-78491497D01*
X123816624Y-78542005D01*
X123715609Y-78542005D01*
X123564086Y-78491497D01*
X123261041Y-78188452D01*
X123210534Y-78036929D01*
X123210533Y-77935914D01*
X123261041Y-77784390D01*
X123463071Y-77582360D01*
X123614594Y-77531852D01*
X125230838Y-77228806D02*
X124675254Y-76673223D01*
X124523731Y-76622715D01*
X124372208Y-76673223D01*
X124170178Y-76875253D01*
X124119671Y-77026776D01*
X125180331Y-77178299D02*
X125129823Y-77329821D01*
X124877285Y-77582360D01*
X124725762Y-77632868D01*
X124574239Y-77582360D01*
X124473224Y-77481345D01*
X124422716Y-77329821D01*
X124473224Y-77178299D01*
X124725762Y-76925761D01*
X124776269Y-76774238D01*
X125483376Y-75562054D02*
X126190483Y-76269161D01*
X125028808Y-76016623D02*
X125584392Y-76572207D01*
X125735914Y-76622715D01*
X125887438Y-76572207D01*
X126038960Y-76420684D01*
X126089468Y-76269162D01*
X126089468Y-76168146D01*
X126695560Y-75764085D02*
X125988453Y-75056978D01*
X126089469Y-75157994D02*
X126089468Y-75056979D01*
X126139976Y-74905455D01*
X126291498Y-74753933D01*
X126443021Y-74703425D01*
X126594544Y-74753933D01*
X127150128Y-75309516D01*
X126594544Y-74753933D02*
X126544037Y-74602409D01*
X126594544Y-74450886D01*
X126746067Y-74299364D01*
X126897591Y-74248856D01*
X127049113Y-74299364D01*
X127604697Y-74854948D01*
X128109773Y-74248857D02*
X128160280Y-74299364D01*
X128210789Y-74450887D01*
X128210788Y-74551902D01*
X128412819Y-72127536D02*
X128412819Y-72026521D01*
X128463326Y-71874998D01*
X128715865Y-71622459D01*
X128867388Y-71571952D01*
X128968404Y-71571952D01*
X129119926Y-71622460D01*
X129220941Y-71723475D01*
X129321957Y-71925505D01*
X129321956Y-73137688D01*
X129978555Y-72481089D01*
X129574494Y-70763830D02*
X129675509Y-70662815D01*
X129827032Y-70612308D01*
X129928048Y-70612308D01*
X130079571Y-70662815D01*
X130332109Y-70814338D01*
X130584647Y-71066876D01*
X130736170Y-71319414D01*
X130786677Y-71470937D01*
X130786677Y-71571953D01*
X130736169Y-71723475D01*
X130635154Y-71824490D01*
X130483632Y-71874998D01*
X130382616Y-71874998D01*
X130231093Y-71824490D01*
X129978555Y-71672968D01*
X129726017Y-71420430D01*
X129574495Y-71167891D01*
X129523987Y-71016369D01*
X129523987Y-70915353D01*
X129574494Y-70763830D01*
X131998860Y-70460785D02*
X131392768Y-71066876D01*
X131695814Y-70763830D02*
X130635154Y-69703170D01*
X130685662Y-69955708D01*
X130685661Y-70157739D01*
X130635154Y-70309262D01*
X131291753Y-69046571D02*
X131998860Y-68339464D01*
X132604951Y-69854693D01*
D10*
X139400400Y-102000000D02*
G75*
G03X139400400Y-102000000I-12500400J0D01*
G01*
X120101974Y-76594077D02*
X125490128Y-71205923D01*
X118305923Y-74798026D02*
X123694077Y-69409872D01*
X116509872Y-76594077D02*
X118305923Y-74798026D01*
X125490128Y-71205923D02*
X123694077Y-69409872D01*
X118305923Y-74798026D02*
X120101974Y-76594077D01*
X116509872Y-76594077D02*
X118305923Y-78390128D01*
X118305923Y-78390128D02*
X120101974Y-76594077D01*
X138400000Y-88000000D02*
X138400000Y-82000000D01*
X138400000Y-82000000D02*
X126400000Y-82000000D01*
X126400000Y-82000000D02*
X126400000Y-88000000D01*
X126400000Y-88000000D02*
X138400000Y-88000000D01*
X143700000Y-103420000D02*
X143700000Y-104436000D01*
X143700000Y-104436000D02*
X144716000Y-104436000D01*
X144716000Y-104436000D02*
X144716000Y-112564000D01*
X144716000Y-112564000D02*
X142684000Y-112564000D01*
X142684000Y-112564000D02*
X142684000Y-104436000D01*
X142684000Y-104436000D02*
X143700000Y-104436000D01*
X144208000Y-104436000D02*
X144716000Y-104944000D01*
X143700000Y-113580000D02*
X143700000Y-112564000D01*
X143800000Y-68720000D02*
X143800000Y-69736000D01*
X143800000Y-69736000D02*
X144816000Y-69736000D01*
X144816000Y-69736000D02*
X144816000Y-77864000D01*
X144816000Y-77864000D02*
X142784000Y-77864000D01*
X142784000Y-77864000D02*
X142784000Y-69736000D01*
X142784000Y-69736000D02*
X143800000Y-69736000D01*
X144308000Y-69736000D02*
X144816000Y-70244000D01*
X143800000Y-78880000D02*
X143800000Y-77864000D01*
X143600000Y-85620000D02*
X143600000Y-86636000D01*
X143600000Y-86636000D02*
X144616000Y-86636000D01*
X144616000Y-86636000D02*
X144616000Y-94764000D01*
X144616000Y-94764000D02*
X142584000Y-94764000D01*
X142584000Y-94764000D02*
X142584000Y-86636000D01*
X142584000Y-86636000D02*
X143600000Y-86636000D01*
X144108000Y-86636000D02*
X144616000Y-87144000D01*
X143600000Y-95780000D02*
X143600000Y-94764000D01*
D13*
X162200000Y-102400000D02*
X162200000Y-115800000D01*
X162200000Y-115800000D02*
X148400000Y-115800000D01*
X148400000Y-115800000D02*
X148400000Y-102200000D01*
X148400000Y-102200000D02*
X162200000Y-102200000D01*
X162200000Y-102200000D02*
X162200000Y-102400000D01*
X162200000Y-66400000D02*
X162200000Y-79800000D01*
X162200000Y-79800000D02*
X148400000Y-79800000D01*
X148400000Y-79800000D02*
X148400000Y-66200000D01*
X148400000Y-66200000D02*
X162200000Y-66200000D01*
X162200000Y-66200000D02*
X162200000Y-66400000D01*
X162200000Y-84400000D02*
X162200000Y-97800000D01*
X162200000Y-97800000D02*
X148400000Y-97800000D01*
X148400000Y-97800000D02*
X148400000Y-84200000D01*
X148400000Y-84200000D02*
X162200000Y-84200000D01*
X162200000Y-84200000D02*
X162200000Y-84400000D01*
X129114571Y-102785714D02*
X129162190Y-102642857D01*
X129209810Y-102595238D01*
X129305048Y-102547619D01*
X129447905Y-102547619D01*
X129543143Y-102595238D01*
X129590762Y-102642857D01*
X129638381Y-102738095D01*
X129638381Y-103119048D01*
X128638381Y-103119048D01*
X128638381Y-102785714D01*
X128686000Y-102690476D01*
X128733619Y-102642857D01*
X128828857Y-102595238D01*
X128924095Y-102595238D01*
X129019333Y-102642857D01*
X129066952Y-102690476D01*
X129114571Y-102785714D01*
X129114571Y-103119048D01*
X128638381Y-102261905D02*
X128638381Y-101690476D01*
X129638381Y-101976191D02*
X128638381Y-101976191D01*
X129638381Y-100833333D02*
X129638381Y-101404762D01*
X129638381Y-101119048D02*
X128638381Y-101119048D01*
X128781238Y-101214286D01*
X128876476Y-101309524D01*
X128924095Y-101404762D01*
D11*
X119497970Y-73291794D02*
X118790863Y-72584687D01*
X118959222Y-72416328D01*
X119093909Y-72348984D01*
X119228596Y-72348984D01*
X119329611Y-72382656D01*
X119497970Y-72483671D01*
X119598986Y-72584687D01*
X119700001Y-72753045D01*
X119733672Y-72854061D01*
X119733672Y-72988747D01*
X119666328Y-73123435D01*
X119497970Y-73291794D01*
X120575466Y-72214297D02*
X120171405Y-72618359D01*
X120373435Y-72416328D02*
X119666328Y-71709222D01*
X119700000Y-71877580D01*
X119700000Y-72012267D01*
X119666328Y-72113282D01*
D13*
X131066667Y-87690762D02*
X131209524Y-87738381D01*
X131447620Y-87738381D01*
X131542858Y-87690762D01*
X131590477Y-87643143D01*
X131638096Y-87547905D01*
X131638096Y-87452667D01*
X131590477Y-87357429D01*
X131542858Y-87309810D01*
X131447620Y-87262190D01*
X131257143Y-87214571D01*
X131161905Y-87166952D01*
X131114286Y-87119333D01*
X131066667Y-87024095D01*
X131066667Y-86928857D01*
X131114286Y-86833619D01*
X131161905Y-86786000D01*
X131257143Y-86738381D01*
X131495239Y-86738381D01*
X131638096Y-86786000D01*
X131971429Y-86738381D02*
X132209524Y-87738381D01*
X132400001Y-87024095D01*
X132590477Y-87738381D01*
X132828572Y-86738381D01*
X133733334Y-87738381D02*
X133161905Y-87738381D01*
X133447619Y-87738381D02*
X133447619Y-86738381D01*
X133352381Y-86881238D01*
X133257143Y-86976476D01*
X133161905Y-87024095D01*
X146261905Y-112233333D02*
X145880952Y-112500000D01*
X146261905Y-112690476D02*
X145461905Y-112690476D01*
X145461905Y-112385714D01*
X145500000Y-112309523D01*
X145538095Y-112271428D01*
X145614286Y-112233333D01*
X145728571Y-112233333D01*
X145804762Y-112271428D01*
X145842857Y-112309523D01*
X145880952Y-112385714D01*
X145880952Y-112690476D01*
X146261905Y-111471428D02*
X146261905Y-111928571D01*
X146261905Y-111700000D02*
X145461905Y-111700000D01*
X145576190Y-111776190D01*
X145652381Y-111852381D01*
X145690476Y-111928571D01*
X145361905Y-109371428D02*
X145361905Y-109752381D01*
X145742857Y-109790476D01*
X145704762Y-109752381D01*
X145666667Y-109676190D01*
X145666667Y-109485714D01*
X145704762Y-109409524D01*
X145742857Y-109371428D01*
X145819048Y-109333333D01*
X146009524Y-109333333D01*
X146085714Y-109371428D01*
X146123810Y-109409524D01*
X146161905Y-109485714D01*
X146161905Y-109676190D01*
X146123810Y-109752381D01*
X146085714Y-109790476D01*
X145361905Y-108647619D02*
X145361905Y-108800000D01*
X145400000Y-108876190D01*
X145438095Y-108914285D01*
X145552381Y-108990476D01*
X145704762Y-109028571D01*
X146009524Y-109028571D01*
X146085714Y-108990476D01*
X146123810Y-108952381D01*
X146161905Y-108876190D01*
X146161905Y-108723809D01*
X146123810Y-108647619D01*
X146085714Y-108609523D01*
X146009524Y-108571428D01*
X145819048Y-108571428D01*
X145742857Y-108609523D01*
X145704762Y-108647619D01*
X145666667Y-108723809D01*
X145666667Y-108876190D01*
X145704762Y-108952381D01*
X145742857Y-108990476D01*
X145819048Y-109028571D01*
X145361905Y-108076190D02*
X145361905Y-107999999D01*
X145400000Y-107923809D01*
X145438095Y-107885714D01*
X145514286Y-107847618D01*
X145666667Y-107809523D01*
X145857143Y-107809523D01*
X146009524Y-107847618D01*
X146085714Y-107885714D01*
X146123810Y-107923809D01*
X146161905Y-107999999D01*
X146161905Y-108076190D01*
X146123810Y-108152380D01*
X146085714Y-108190476D01*
X146009524Y-108228571D01*
X145857143Y-108266666D01*
X145666667Y-108266666D01*
X145514286Y-108228571D01*
X145438095Y-108190476D01*
X145400000Y-108152380D01*
X145361905Y-108076190D01*
X146261905Y-77233333D02*
X145880952Y-77500000D01*
X146261905Y-77690476D02*
X145461905Y-77690476D01*
X145461905Y-77385714D01*
X145500000Y-77309523D01*
X145538095Y-77271428D01*
X145614286Y-77233333D01*
X145728571Y-77233333D01*
X145804762Y-77271428D01*
X145842857Y-77309523D01*
X145880952Y-77385714D01*
X145880952Y-77690476D01*
X145538095Y-76928571D02*
X145500000Y-76890476D01*
X145461905Y-76814285D01*
X145461905Y-76623809D01*
X145500000Y-76547619D01*
X145538095Y-76509523D01*
X145614286Y-76471428D01*
X145690476Y-76471428D01*
X145804762Y-76509523D01*
X146261905Y-76966666D01*
X146261905Y-76471428D01*
X145461905Y-73871428D02*
X145461905Y-74252381D01*
X145842857Y-74290476D01*
X145804762Y-74252381D01*
X145766667Y-74176190D01*
X145766667Y-73985714D01*
X145804762Y-73909524D01*
X145842857Y-73871428D01*
X145919048Y-73833333D01*
X146109524Y-73833333D01*
X146185714Y-73871428D01*
X146223810Y-73909524D01*
X146261905Y-73985714D01*
X146261905Y-74176190D01*
X146223810Y-74252381D01*
X146185714Y-74290476D01*
X145461905Y-73147619D02*
X145461905Y-73300000D01*
X145500000Y-73376190D01*
X145538095Y-73414285D01*
X145652381Y-73490476D01*
X145804762Y-73528571D01*
X146109524Y-73528571D01*
X146185714Y-73490476D01*
X146223810Y-73452381D01*
X146261905Y-73376190D01*
X146261905Y-73223809D01*
X146223810Y-73147619D01*
X146185714Y-73109523D01*
X146109524Y-73071428D01*
X145919048Y-73071428D01*
X145842857Y-73109523D01*
X145804762Y-73147619D01*
X145766667Y-73223809D01*
X145766667Y-73376190D01*
X145804762Y-73452381D01*
X145842857Y-73490476D01*
X145919048Y-73528571D01*
X145461905Y-72576190D02*
X145461905Y-72499999D01*
X145500000Y-72423809D01*
X145538095Y-72385714D01*
X145614286Y-72347618D01*
X145766667Y-72309523D01*
X145957143Y-72309523D01*
X146109524Y-72347618D01*
X146185714Y-72385714D01*
X146223810Y-72423809D01*
X146261905Y-72499999D01*
X146261905Y-72576190D01*
X146223810Y-72652380D01*
X146185714Y-72690476D01*
X146109524Y-72728571D01*
X145957143Y-72766666D01*
X145766667Y-72766666D01*
X145614286Y-72728571D01*
X145538095Y-72690476D01*
X145500000Y-72652380D01*
X145461905Y-72576190D01*
X146061905Y-93833333D02*
X145680952Y-94100000D01*
X146061905Y-94290476D02*
X145261905Y-94290476D01*
X145261905Y-93985714D01*
X145300000Y-93909523D01*
X145338095Y-93871428D01*
X145414286Y-93833333D01*
X145528571Y-93833333D01*
X145604762Y-93871428D01*
X145642857Y-93909523D01*
X145680952Y-93985714D01*
X145680952Y-94290476D01*
X145261905Y-93566666D02*
X145261905Y-93071428D01*
X145566667Y-93338095D01*
X145566667Y-93223809D01*
X145604762Y-93147619D01*
X145642857Y-93109523D01*
X145719048Y-93071428D01*
X145909524Y-93071428D01*
X145985714Y-93109523D01*
X146023810Y-93147619D01*
X146061905Y-93223809D01*
X146061905Y-93452381D01*
X146023810Y-93528571D01*
X145985714Y-93566666D01*
X145361905Y-90971428D02*
X145361905Y-91352381D01*
X145742857Y-91390476D01*
X145704762Y-91352381D01*
X145666667Y-91276190D01*
X145666667Y-91085714D01*
X145704762Y-91009524D01*
X145742857Y-90971428D01*
X145819048Y-90933333D01*
X146009524Y-90933333D01*
X146085714Y-90971428D01*
X146123810Y-91009524D01*
X146161905Y-91085714D01*
X146161905Y-91276190D01*
X146123810Y-91352381D01*
X146085714Y-91390476D01*
X145361905Y-90247619D02*
X145361905Y-90400000D01*
X145400000Y-90476190D01*
X145438095Y-90514285D01*
X145552381Y-90590476D01*
X145704762Y-90628571D01*
X146009524Y-90628571D01*
X146085714Y-90590476D01*
X146123810Y-90552381D01*
X146161905Y-90476190D01*
X146161905Y-90323809D01*
X146123810Y-90247619D01*
X146085714Y-90209523D01*
X146009524Y-90171428D01*
X145819048Y-90171428D01*
X145742857Y-90209523D01*
X145704762Y-90247619D01*
X145666667Y-90323809D01*
X145666667Y-90476190D01*
X145704762Y-90552381D01*
X145742857Y-90590476D01*
X145819048Y-90628571D01*
X145361905Y-89676190D02*
X145361905Y-89599999D01*
X145400000Y-89523809D01*
X145438095Y-89485714D01*
X145514286Y-89447618D01*
X145666667Y-89409523D01*
X145857143Y-89409523D01*
X146009524Y-89447618D01*
X146085714Y-89485714D01*
X146123810Y-89523809D01*
X146161905Y-89599999D01*
X146161905Y-89676190D01*
X146123810Y-89752380D01*
X146085714Y-89790476D01*
X146009524Y-89828571D01*
X145857143Y-89866666D01*
X145666667Y-89866666D01*
X145514286Y-89828571D01*
X145438095Y-89790476D01*
X145400000Y-89752380D01*
X145361905Y-89676190D01*
D14*
X152860524Y-109755952D02*
X152255762Y-110179285D01*
X152860524Y-110481666D02*
X151590524Y-110481666D01*
X151590524Y-109997857D01*
X151651000Y-109876904D01*
X151711476Y-109816428D01*
X151832429Y-109755952D01*
X152013857Y-109755952D01*
X152134810Y-109816428D01*
X152195286Y-109876904D01*
X152255762Y-109997857D01*
X152255762Y-110481666D01*
X151590524Y-109393095D02*
X152860524Y-108969761D01*
X151590524Y-108546428D01*
X152860524Y-107457857D02*
X152860524Y-108183571D01*
X152860524Y-107820714D02*
X151590524Y-107820714D01*
X151771952Y-107941666D01*
X151892905Y-108062619D01*
X151953381Y-108183571D01*
X152860524Y-73755952D02*
X152255762Y-74179285D01*
X152860524Y-74481666D02*
X151590524Y-74481666D01*
X151590524Y-73997857D01*
X151651000Y-73876904D01*
X151711476Y-73816428D01*
X151832429Y-73755952D01*
X152013857Y-73755952D01*
X152134810Y-73816428D01*
X152195286Y-73876904D01*
X152255762Y-73997857D01*
X152255762Y-74481666D01*
X151590524Y-73393095D02*
X152860524Y-72969761D01*
X151590524Y-72546428D01*
X151711476Y-72183571D02*
X151651000Y-72123095D01*
X151590524Y-72002143D01*
X151590524Y-71699762D01*
X151651000Y-71578809D01*
X151711476Y-71518333D01*
X151832429Y-71457857D01*
X151953381Y-71457857D01*
X152134810Y-71518333D01*
X152860524Y-72244047D01*
X152860524Y-71457857D01*
X152860524Y-91755952D02*
X152255762Y-92179285D01*
X152860524Y-92481666D02*
X151590524Y-92481666D01*
X151590524Y-91997857D01*
X151651000Y-91876904D01*
X151711476Y-91816428D01*
X151832429Y-91755952D01*
X152013857Y-91755952D01*
X152134810Y-91816428D01*
X152195286Y-91876904D01*
X152255762Y-91997857D01*
X152255762Y-92481666D01*
X151590524Y-91393095D02*
X152860524Y-90969761D01*
X151590524Y-90546428D01*
X151590524Y-90244047D02*
X151590524Y-89457857D01*
X152074333Y-89881190D01*
X152074333Y-89699762D01*
X152134810Y-89578809D01*
X152195286Y-89518333D01*
X152316238Y-89457857D01*
X152618619Y-89457857D01*
X152739571Y-89518333D01*
X152800048Y-89578809D01*
X152860524Y-89699762D01*
X152860524Y-90062619D01*
X152800048Y-90183571D01*
X152739571Y-90244047D01*
M02*
