G04 #@! TF.FileFunction,Copper,L1,Top,Signal*
%FSLAX46Y46*%
G04 Gerber Fmt 4.6, Leading zero omitted, Abs format (unit mm)*
G04 Created by KiCad (PCBNEW 4.0.4+e1-6308~48~ubuntu15.10.1-stable) date Wed Sep 27 09:28:55 2017*
%MOMM*%
%LPD*%
G01*
G04 APERTURE LIST*
%ADD10C,0.150000*%
%ADD11C,3.000000*%
%ADD12C,1.727200*%
%ADD13O,2.000000X1.500000*%
%ADD14C,1.778000*%
%ADD15R,1.524000X2.000000*%
%ADD16C,2.000000*%
%ADD17O,3.000000X2.000000*%
%ADD18C,5.000000*%
%ADD19C,0.750000*%
%ADD20C,0.250000*%
G04 APERTURE END LIST*
D10*
D11*
X126900000Y-92000000D03*
X126900000Y-112000000D03*
D10*
G36*
X118413686Y-77923155D02*
X116976845Y-76486314D01*
X118198160Y-75264999D01*
X119635001Y-76701840D01*
X118413686Y-77923155D01*
X118413686Y-77923155D01*
G37*
D12*
X119994211Y-74690263D02*
X120209737Y-74905789D01*
X121790263Y-72894211D02*
X122005789Y-73109737D01*
X123586314Y-71098160D02*
X123801840Y-71313686D01*
D13*
X135400000Y-85000000D03*
X132400000Y-85000000D03*
X129400000Y-85000000D03*
D14*
X143700000Y-103420000D03*
X143700000Y-113580000D03*
D15*
X143700000Y-106500000D03*
X143700000Y-110500000D03*
D14*
X143800000Y-68720000D03*
X143800000Y-78880000D03*
D15*
X143800000Y-71800000D03*
X143800000Y-75800000D03*
D14*
X143600000Y-85620000D03*
X143600000Y-95780000D03*
D15*
X143600000Y-88700000D03*
X143600000Y-92700000D03*
D16*
X150000000Y-104750000D03*
X150000000Y-109000000D03*
X150000000Y-113250000D03*
D17*
X160000000Y-114000000D03*
X160000000Y-104000000D03*
D16*
X150000000Y-68750000D03*
X150000000Y-73000000D03*
X150000000Y-77250000D03*
D17*
X160000000Y-78000000D03*
X160000000Y-68000000D03*
D16*
X150000000Y-86750000D03*
X150000000Y-91000000D03*
X150000000Y-95250000D03*
D17*
X160000000Y-96000000D03*
X160000000Y-86000000D03*
D18*
X116300000Y-89450000D03*
X136500000Y-69100000D03*
D19*
X132400000Y-85000000D02*
X132400000Y-86500000D01*
X132400000Y-86500000D02*
X126900000Y-92000000D01*
X122300000Y-93100000D02*
X132620000Y-103420000D01*
X132620000Y-103420000D02*
X134192124Y-103420000D01*
X122300000Y-80588154D02*
X122300000Y-93100000D01*
X118305923Y-76594077D02*
X122300000Y-80588154D01*
X134192124Y-103420000D02*
X142442765Y-103420000D01*
D20*
X142442765Y-103420000D02*
X143700000Y-103420000D01*
D19*
X143600000Y-85620000D02*
X140737903Y-85620000D01*
X140737903Y-85620000D02*
X128119877Y-73001974D01*
X128119877Y-73001974D02*
X126450000Y-73001974D01*
X126450000Y-73001974D02*
X121898026Y-73001974D01*
D20*
X126450000Y-73001974D02*
X128501974Y-73001974D01*
D19*
X123694077Y-71205923D02*
X124540118Y-72051964D01*
X124540118Y-72051964D02*
X128513384Y-72051964D01*
X128791927Y-72301964D02*
X129201984Y-72712021D01*
X128513384Y-72051964D02*
X128763384Y-72301964D01*
X128763384Y-72301964D02*
X128791927Y-72301964D01*
X129201984Y-72712021D02*
X129201984Y-72740565D01*
X129201984Y-72740565D02*
X129264352Y-72802933D01*
X129264352Y-72802933D02*
X141608913Y-72802933D01*
X141608913Y-72802933D02*
X143205923Y-71205923D01*
D20*
X143205923Y-71205923D02*
X143800000Y-71800000D01*
D19*
X150000000Y-109000000D02*
X150000000Y-110414213D01*
X150000000Y-110414213D02*
X150000000Y-113250000D01*
X143700000Y-113580000D02*
X149670000Y-113580000D01*
D20*
X149670000Y-113580000D02*
X150000000Y-113250000D01*
D19*
X150000000Y-73000000D02*
X150000000Y-77250000D01*
X143800000Y-78880000D02*
X148370000Y-78880000D01*
X148370000Y-78880000D02*
X150000000Y-77250000D01*
X150000000Y-91000000D02*
X150000000Y-92414213D01*
X150000000Y-92414213D02*
X150000000Y-95250000D01*
X143600000Y-95780000D02*
X149470000Y-95780000D01*
D20*
X149470000Y-95780000D02*
X150000000Y-95250000D01*
X135400000Y-85000000D02*
X135150000Y-85000000D01*
D19*
X135150000Y-85000000D02*
X124948026Y-74798026D01*
X124948026Y-74798026D02*
X121164320Y-74798026D01*
D20*
X121164320Y-74798026D02*
X120101974Y-74798026D01*
D19*
X150000000Y-104750000D02*
X151325001Y-106075001D01*
D20*
X151325001Y-106075001D02*
X151325001Y-106125001D01*
D19*
X151325001Y-106125001D02*
X154100000Y-108900000D01*
X152186524Y-115213476D02*
X130113476Y-115213476D01*
X154100000Y-108900000D02*
X154100000Y-113300000D01*
X154100000Y-113300000D02*
X152186524Y-115213476D01*
X130113476Y-115213476D02*
X126900000Y-112000000D01*
X154350000Y-91100000D02*
X154350000Y-100400000D01*
X154350000Y-100400000D02*
X150000000Y-104750000D01*
X150000000Y-86750000D02*
X154350000Y-91100000D01*
X150000000Y-68750000D02*
X154800000Y-73550000D01*
X154800000Y-73550000D02*
X154800000Y-81950000D01*
X154800000Y-81950000D02*
X150999999Y-85750001D01*
D20*
X150999999Y-85750001D02*
X150000000Y-86750000D01*
M02*
