G04 #@! TF.FileFunction,Copper,L2,Bot,Signal*
%FSLAX46Y46*%
G04 Gerber Fmt 4.6, Leading zero omitted, Abs format (unit mm)*
G04 Created by KiCad (PCBNEW 4.0.4+e1-6308~48~ubuntu15.10.1-stable) date Wed Sep 27 09:28:55 2017*
%MOMM*%
%LPD*%
G01*
G04 APERTURE LIST*
%ADD10C,0.150000*%
%ADD11C,3.000000*%
%ADD12C,1.727200*%
%ADD13O,2.000000X1.500000*%
%ADD14C,1.778000*%
%ADD15C,2.000000*%
%ADD16O,3.000000X2.000000*%
%ADD17C,5.000000*%
%ADD18C,0.250000*%
%ADD19C,0.254000*%
G04 APERTURE END LIST*
D10*
D11*
X126900000Y-92000000D03*
X126900000Y-112000000D03*
D10*
G36*
X118413686Y-77923155D02*
X116976845Y-76486314D01*
X118198160Y-75264999D01*
X119635001Y-76701840D01*
X118413686Y-77923155D01*
X118413686Y-77923155D01*
G37*
D12*
X119994211Y-74690263D02*
X120209737Y-74905789D01*
X121790263Y-72894211D02*
X122005789Y-73109737D01*
X123586314Y-71098160D02*
X123801840Y-71313686D01*
D13*
X135400000Y-85000000D03*
X132400000Y-85000000D03*
X129400000Y-85000000D03*
D14*
X143700000Y-103420000D03*
X143700000Y-113580000D03*
X143800000Y-68720000D03*
X143800000Y-78880000D03*
X143600000Y-85620000D03*
X143600000Y-95780000D03*
D15*
X150000000Y-104750000D03*
X150000000Y-109000000D03*
X150000000Y-113250000D03*
D16*
X160000000Y-114000000D03*
X160000000Y-104000000D03*
D15*
X150000000Y-68750000D03*
X150000000Y-73000000D03*
X150000000Y-77250000D03*
D16*
X160000000Y-78000000D03*
X160000000Y-68000000D03*
D15*
X150000000Y-86750000D03*
X150000000Y-91000000D03*
X150000000Y-95250000D03*
D16*
X160000000Y-96000000D03*
X160000000Y-86000000D03*
D17*
X116300000Y-89450000D03*
X136500000Y-69100000D03*
D18*
X150000000Y-104750000D02*
X142750000Y-112000000D01*
X142750000Y-112000000D02*
X126900000Y-112000000D01*
D19*
G36*
X134443725Y-66864120D02*
X136500000Y-68920395D01*
X138556275Y-66864120D01*
X138453562Y-66710000D01*
X156580981Y-66710000D01*
X158493098Y-66716228D01*
X158302053Y-66843880D01*
X157947630Y-67374313D01*
X157823173Y-68000000D01*
X157947630Y-68625687D01*
X158302053Y-69156120D01*
X158832486Y-69510543D01*
X159458173Y-69635000D01*
X160541827Y-69635000D01*
X161167514Y-69510543D01*
X161689315Y-69161887D01*
X161738633Y-76904771D01*
X161697947Y-76843880D01*
X161167514Y-76489457D01*
X160541827Y-76365000D01*
X159458173Y-76365000D01*
X158832486Y-76489457D01*
X158302053Y-76843880D01*
X157947630Y-77374313D01*
X157823173Y-78000000D01*
X157947630Y-78625687D01*
X158302053Y-79156120D01*
X158832486Y-79510543D01*
X159458173Y-79635000D01*
X160541827Y-79635000D01*
X161167514Y-79510543D01*
X161697947Y-79156120D01*
X161752454Y-79074545D01*
X161790000Y-84969323D01*
X161790000Y-84981647D01*
X161697947Y-84843880D01*
X161167514Y-84489457D01*
X160541827Y-84365000D01*
X159458173Y-84365000D01*
X158832486Y-84489457D01*
X158302053Y-84843880D01*
X157947630Y-85374313D01*
X157823173Y-86000000D01*
X157947630Y-86625687D01*
X158302053Y-87156120D01*
X158832486Y-87510543D01*
X159458173Y-87635000D01*
X160541827Y-87635000D01*
X161167514Y-87510543D01*
X161697947Y-87156120D01*
X161790000Y-87018353D01*
X161790000Y-94981647D01*
X161697947Y-94843880D01*
X161167514Y-94489457D01*
X160541827Y-94365000D01*
X159458173Y-94365000D01*
X158832486Y-94489457D01*
X158302053Y-94843880D01*
X157947630Y-95374313D01*
X157823173Y-96000000D01*
X157947630Y-96625687D01*
X158302053Y-97156120D01*
X158832486Y-97510543D01*
X159458173Y-97635000D01*
X160541827Y-97635000D01*
X161167514Y-97510543D01*
X161697947Y-97156120D01*
X161790000Y-97018353D01*
X161790000Y-102981647D01*
X161697947Y-102843880D01*
X161167514Y-102489457D01*
X160541827Y-102365000D01*
X159458173Y-102365000D01*
X158832486Y-102489457D01*
X158302053Y-102843880D01*
X157947630Y-103374313D01*
X157823173Y-104000000D01*
X157947630Y-104625687D01*
X158302053Y-105156120D01*
X158832486Y-105510543D01*
X159458173Y-105635000D01*
X160541827Y-105635000D01*
X161167514Y-105510543D01*
X161697947Y-105156120D01*
X161790000Y-105018353D01*
X161790000Y-112981647D01*
X161697947Y-112843880D01*
X161167514Y-112489457D01*
X160541827Y-112365000D01*
X159458173Y-112365000D01*
X158832486Y-112489457D01*
X158302053Y-112843880D01*
X157947630Y-113374313D01*
X157823173Y-114000000D01*
X157947630Y-114625687D01*
X158302053Y-115156120D01*
X158502419Y-115290000D01*
X152646546Y-115290000D01*
X116256315Y-114873636D01*
X115005423Y-113513970D01*
X125565635Y-113513970D01*
X125725418Y-113832739D01*
X126516187Y-114142723D01*
X127365387Y-114126497D01*
X127956109Y-113881812D01*
X142175736Y-113881812D01*
X142407262Y-114442149D01*
X142835596Y-114871231D01*
X143395528Y-115103735D01*
X144001812Y-115104264D01*
X144562149Y-114872738D01*
X144991231Y-114444404D01*
X145223735Y-113884472D01*
X145224006Y-113573795D01*
X148364716Y-113573795D01*
X148613106Y-114174943D01*
X149072637Y-114635278D01*
X149673352Y-114884716D01*
X150323795Y-114885284D01*
X150924943Y-114636894D01*
X151385278Y-114177363D01*
X151634716Y-113576648D01*
X151635284Y-112926205D01*
X151386894Y-112325057D01*
X150927363Y-111864722D01*
X150326648Y-111615284D01*
X149676205Y-111614716D01*
X149075057Y-111863106D01*
X148614722Y-112322637D01*
X148365284Y-112923352D01*
X148364716Y-113573795D01*
X145224006Y-113573795D01*
X145224264Y-113278188D01*
X144992738Y-112717851D01*
X144564404Y-112288769D01*
X144004472Y-112056265D01*
X143398188Y-112055736D01*
X142837851Y-112287262D01*
X142408769Y-112715596D01*
X142176265Y-113275528D01*
X142175736Y-113881812D01*
X127956109Y-113881812D01*
X128074582Y-113832739D01*
X128234365Y-113513970D01*
X126900000Y-112179605D01*
X125565635Y-113513970D01*
X115005423Y-113513970D01*
X114026643Y-112450079D01*
X114020623Y-111616187D01*
X124757277Y-111616187D01*
X124773503Y-112465387D01*
X125067261Y-113174582D01*
X125386030Y-113334365D01*
X126720395Y-112000000D01*
X127079605Y-112000000D01*
X128413970Y-113334365D01*
X128732739Y-113174582D01*
X129042723Y-112383813D01*
X129026497Y-111534613D01*
X128732739Y-110825418D01*
X128413970Y-110665635D01*
X127079605Y-112000000D01*
X126720395Y-112000000D01*
X125386030Y-110665635D01*
X125067261Y-110825418D01*
X124757277Y-111616187D01*
X114020623Y-111616187D01*
X114012464Y-110486030D01*
X125565635Y-110486030D01*
X126900000Y-111820395D01*
X128234365Y-110486030D01*
X128074582Y-110167261D01*
X127283813Y-109857277D01*
X126434613Y-109873503D01*
X125725418Y-110167261D01*
X125565635Y-110486030D01*
X114012464Y-110486030D01*
X114004073Y-109323795D01*
X148364716Y-109323795D01*
X148613106Y-109924943D01*
X149072637Y-110385278D01*
X149673352Y-110634716D01*
X150323795Y-110635284D01*
X150924943Y-110386894D01*
X151385278Y-109927363D01*
X151634716Y-109326648D01*
X151635284Y-108676205D01*
X151386894Y-108075057D01*
X150927363Y-107614722D01*
X150326648Y-107365284D01*
X149676205Y-107364716D01*
X149075057Y-107613106D01*
X148614722Y-108072637D01*
X148365284Y-108673352D01*
X148364716Y-109323795D01*
X114004073Y-109323795D01*
X113979371Y-105902532D01*
X149027073Y-105902532D01*
X149125736Y-106169387D01*
X149735461Y-106395908D01*
X150385460Y-106371856D01*
X150874264Y-106169387D01*
X150972927Y-105902532D01*
X150000000Y-104929605D01*
X149027073Y-105902532D01*
X113979371Y-105902532D01*
X113963625Y-103721812D01*
X142175736Y-103721812D01*
X142407262Y-104282149D01*
X142835596Y-104711231D01*
X143395528Y-104943735D01*
X144001812Y-104944264D01*
X144562149Y-104712738D01*
X144789822Y-104485461D01*
X148354092Y-104485461D01*
X148378144Y-105135460D01*
X148580613Y-105624264D01*
X148847468Y-105722927D01*
X149820395Y-104750000D01*
X150179605Y-104750000D01*
X151152532Y-105722927D01*
X151419387Y-105624264D01*
X151645908Y-105014539D01*
X151621856Y-104364540D01*
X151419387Y-103875736D01*
X151152532Y-103777073D01*
X150179605Y-104750000D01*
X149820395Y-104750000D01*
X148847468Y-103777073D01*
X148580613Y-103875736D01*
X148354092Y-104485461D01*
X144789822Y-104485461D01*
X144991231Y-104284404D01*
X145223735Y-103724472D01*
X145223845Y-103597468D01*
X149027073Y-103597468D01*
X150000000Y-104570395D01*
X150972927Y-103597468D01*
X150874264Y-103330613D01*
X150264539Y-103104092D01*
X149614540Y-103128144D01*
X149125736Y-103330613D01*
X149027073Y-103597468D01*
X145223845Y-103597468D01*
X145224264Y-103118188D01*
X144992738Y-102557851D01*
X144564404Y-102128769D01*
X144004472Y-101896265D01*
X143398188Y-101895736D01*
X142837851Y-102127262D01*
X142408769Y-102555596D01*
X142176265Y-103115528D01*
X142175736Y-103721812D01*
X113963625Y-103721812D01*
X113908462Y-96081812D01*
X142075736Y-96081812D01*
X142307262Y-96642149D01*
X142735596Y-97071231D01*
X143295528Y-97303735D01*
X143901812Y-97304264D01*
X144462149Y-97072738D01*
X144891231Y-96644404D01*
X145123735Y-96084472D01*
X145124180Y-95573795D01*
X148364716Y-95573795D01*
X148613106Y-96174943D01*
X149072637Y-96635278D01*
X149673352Y-96884716D01*
X150323795Y-96885284D01*
X150924943Y-96636894D01*
X151385278Y-96177363D01*
X151634716Y-95576648D01*
X151635284Y-94926205D01*
X151386894Y-94325057D01*
X150927363Y-93864722D01*
X150326648Y-93615284D01*
X149676205Y-93614716D01*
X149075057Y-93863106D01*
X148614722Y-94322637D01*
X148365284Y-94923352D01*
X148364716Y-95573795D01*
X145124180Y-95573795D01*
X145124264Y-95478188D01*
X144892738Y-94917851D01*
X144464404Y-94488769D01*
X143904472Y-94256265D01*
X143298188Y-94255736D01*
X142737851Y-94487262D01*
X142308769Y-94915596D01*
X142076265Y-95475528D01*
X142075736Y-96081812D01*
X113908462Y-96081812D01*
X113876722Y-91685880D01*
X114243725Y-91685880D01*
X114525421Y-92108564D01*
X115677892Y-92585294D01*
X116925072Y-92584705D01*
X117315909Y-92422815D01*
X124764630Y-92422815D01*
X125088980Y-93207800D01*
X125689041Y-93808909D01*
X126473459Y-94134628D01*
X127322815Y-94135370D01*
X128107800Y-93811020D01*
X128708909Y-93210959D01*
X129034628Y-92426541D01*
X129035370Y-91577185D01*
X128930672Y-91323795D01*
X148364716Y-91323795D01*
X148613106Y-91924943D01*
X149072637Y-92385278D01*
X149673352Y-92634716D01*
X150323795Y-92635284D01*
X150924943Y-92386894D01*
X151385278Y-91927363D01*
X151634716Y-91326648D01*
X151635284Y-90676205D01*
X151386894Y-90075057D01*
X150927363Y-89614722D01*
X150326648Y-89365284D01*
X149676205Y-89364716D01*
X149075057Y-89613106D01*
X148614722Y-90072637D01*
X148365284Y-90673352D01*
X148364716Y-91323795D01*
X128930672Y-91323795D01*
X128711020Y-90792200D01*
X128110959Y-90191091D01*
X127326541Y-89865372D01*
X126477185Y-89864630D01*
X125692200Y-90188980D01*
X125091091Y-90789041D01*
X124765372Y-91573459D01*
X124764630Y-92422815D01*
X117315909Y-92422815D01*
X118074579Y-92108564D01*
X118356275Y-91685880D01*
X116300000Y-89629605D01*
X114243725Y-91685880D01*
X113876722Y-91685880D01*
X113874512Y-91379911D01*
X114064120Y-91506275D01*
X116120395Y-89450000D01*
X116479605Y-89450000D01*
X118535880Y-91506275D01*
X118958564Y-91224579D01*
X119435294Y-90072108D01*
X119434705Y-88824928D01*
X119052637Y-87902532D01*
X149027073Y-87902532D01*
X149125736Y-88169387D01*
X149735461Y-88395908D01*
X150385460Y-88371856D01*
X150874264Y-88169387D01*
X150972927Y-87902532D01*
X150000000Y-86929605D01*
X149027073Y-87902532D01*
X119052637Y-87902532D01*
X118958564Y-87675421D01*
X118535880Y-87393725D01*
X116479605Y-89450000D01*
X116120395Y-89450000D01*
X114064120Y-87393725D01*
X113846777Y-87538573D01*
X113844435Y-87214120D01*
X114243725Y-87214120D01*
X116300000Y-89270395D01*
X118356275Y-87214120D01*
X118074579Y-86791436D01*
X116922108Y-86314706D01*
X115674928Y-86315295D01*
X114525421Y-86791436D01*
X114243725Y-87214120D01*
X113844435Y-87214120D01*
X113831753Y-85457836D01*
X113922822Y-85000000D01*
X127732968Y-85000000D01*
X127838395Y-85530017D01*
X128138625Y-85979343D01*
X128587951Y-86279573D01*
X129117968Y-86385000D01*
X129682032Y-86385000D01*
X130212049Y-86279573D01*
X130661375Y-85979343D01*
X130900000Y-85622215D01*
X131138625Y-85979343D01*
X131587951Y-86279573D01*
X132117968Y-86385000D01*
X132682032Y-86385000D01*
X133212049Y-86279573D01*
X133661375Y-85979343D01*
X133900000Y-85622215D01*
X134138625Y-85979343D01*
X134587951Y-86279573D01*
X135117968Y-86385000D01*
X135682032Y-86385000D01*
X136212049Y-86279573D01*
X136661375Y-85979343D01*
X136699815Y-85921812D01*
X142075736Y-85921812D01*
X142307262Y-86482149D01*
X142735596Y-86911231D01*
X143295528Y-87143735D01*
X143901812Y-87144264D01*
X144462149Y-86912738D01*
X144890172Y-86485461D01*
X148354092Y-86485461D01*
X148378144Y-87135460D01*
X148580613Y-87624264D01*
X148847468Y-87722927D01*
X149820395Y-86750000D01*
X150179605Y-86750000D01*
X151152532Y-87722927D01*
X151419387Y-87624264D01*
X151645908Y-87014539D01*
X151621856Y-86364540D01*
X151419387Y-85875736D01*
X151152532Y-85777073D01*
X150179605Y-86750000D01*
X149820395Y-86750000D01*
X148847468Y-85777073D01*
X148580613Y-85875736D01*
X148354092Y-86485461D01*
X144890172Y-86485461D01*
X144891231Y-86484404D01*
X145123735Y-85924472D01*
X145124020Y-85597468D01*
X149027073Y-85597468D01*
X150000000Y-86570395D01*
X150972927Y-85597468D01*
X150874264Y-85330613D01*
X150264539Y-85104092D01*
X149614540Y-85128144D01*
X149125736Y-85330613D01*
X149027073Y-85597468D01*
X145124020Y-85597468D01*
X145124264Y-85318188D01*
X144892738Y-84757851D01*
X144464404Y-84328769D01*
X143904472Y-84096265D01*
X143298188Y-84095736D01*
X142737851Y-84327262D01*
X142308769Y-84755596D01*
X142076265Y-85315528D01*
X142075736Y-85921812D01*
X136699815Y-85921812D01*
X136961605Y-85530017D01*
X137067032Y-85000000D01*
X136961605Y-84469983D01*
X136661375Y-84020657D01*
X136212049Y-83720427D01*
X135682032Y-83615000D01*
X135117968Y-83615000D01*
X134587951Y-83720427D01*
X134138625Y-84020657D01*
X133900000Y-84377785D01*
X133661375Y-84020657D01*
X133212049Y-83720427D01*
X132682032Y-83615000D01*
X132117968Y-83615000D01*
X131587951Y-83720427D01*
X131138625Y-84020657D01*
X130900000Y-84377785D01*
X130661375Y-84020657D01*
X130212049Y-83720427D01*
X129682032Y-83615000D01*
X129117968Y-83615000D01*
X128587951Y-83720427D01*
X128138625Y-84020657D01*
X127838395Y-84469983D01*
X127732968Y-85000000D01*
X113922822Y-85000000D01*
X113985716Y-84683814D01*
X119217127Y-79181812D01*
X142275736Y-79181812D01*
X142507262Y-79742149D01*
X142935596Y-80171231D01*
X143495528Y-80403735D01*
X144101812Y-80404264D01*
X144662149Y-80172738D01*
X145091231Y-79744404D01*
X145323735Y-79184472D01*
X145324264Y-78578188D01*
X145092738Y-78017851D01*
X144664404Y-77588769D01*
X144628343Y-77573795D01*
X148364716Y-77573795D01*
X148613106Y-78174943D01*
X149072637Y-78635278D01*
X149673352Y-78884716D01*
X150323795Y-78885284D01*
X150924943Y-78636894D01*
X151385278Y-78177363D01*
X151634716Y-77576648D01*
X151635284Y-76926205D01*
X151386894Y-76325057D01*
X150927363Y-75864722D01*
X150326648Y-75615284D01*
X149676205Y-75614716D01*
X149075057Y-75863106D01*
X148614722Y-76322637D01*
X148365284Y-76923352D01*
X148364716Y-77573795D01*
X144628343Y-77573795D01*
X144104472Y-77356265D01*
X143498188Y-77355736D01*
X142937851Y-77587262D01*
X142508769Y-78015596D01*
X142276265Y-78575528D01*
X142275736Y-79181812D01*
X119217127Y-79181812D01*
X124787044Y-73323795D01*
X148364716Y-73323795D01*
X148613106Y-73924943D01*
X149072637Y-74385278D01*
X149673352Y-74634716D01*
X150323795Y-74635284D01*
X150924943Y-74386894D01*
X151385278Y-73927363D01*
X151634716Y-73326648D01*
X151635284Y-72676205D01*
X151386894Y-72075057D01*
X150927363Y-71614722D01*
X150326648Y-71365284D01*
X149676205Y-71364716D01*
X149075057Y-71613106D01*
X148614722Y-72072637D01*
X148365284Y-72673352D01*
X148364716Y-73323795D01*
X124787044Y-73323795D01*
X126677193Y-71335880D01*
X134443725Y-71335880D01*
X134725421Y-71758564D01*
X135877892Y-72235294D01*
X137125072Y-72234705D01*
X138274579Y-71758564D01*
X138556275Y-71335880D01*
X136500000Y-69279605D01*
X134443725Y-71335880D01*
X126677193Y-71335880D01*
X129394625Y-68477892D01*
X133364706Y-68477892D01*
X133365295Y-69725072D01*
X133841436Y-70874579D01*
X134264120Y-71156275D01*
X136320395Y-69100000D01*
X136679605Y-69100000D01*
X138735880Y-71156275D01*
X139158564Y-70874579D01*
X139635294Y-69722108D01*
X139634964Y-69021812D01*
X142275736Y-69021812D01*
X142507262Y-69582149D01*
X142935596Y-70011231D01*
X143495528Y-70243735D01*
X144101812Y-70244264D01*
X144662149Y-70012738D01*
X144772547Y-69902532D01*
X149027073Y-69902532D01*
X149125736Y-70169387D01*
X149735461Y-70395908D01*
X150385460Y-70371856D01*
X150874264Y-70169387D01*
X150972927Y-69902532D01*
X150000000Y-68929605D01*
X149027073Y-69902532D01*
X144772547Y-69902532D01*
X145091231Y-69584404D01*
X145323735Y-69024472D01*
X145324205Y-68485461D01*
X148354092Y-68485461D01*
X148378144Y-69135460D01*
X148580613Y-69624264D01*
X148847468Y-69722927D01*
X149820395Y-68750000D01*
X150179605Y-68750000D01*
X151152532Y-69722927D01*
X151419387Y-69624264D01*
X151645908Y-69014539D01*
X151621856Y-68364540D01*
X151419387Y-67875736D01*
X151152532Y-67777073D01*
X150179605Y-68750000D01*
X149820395Y-68750000D01*
X148847468Y-67777073D01*
X148580613Y-67875736D01*
X148354092Y-68485461D01*
X145324205Y-68485461D01*
X145324264Y-68418188D01*
X145092738Y-67857851D01*
X144832809Y-67597468D01*
X149027073Y-67597468D01*
X150000000Y-68570395D01*
X150972927Y-67597468D01*
X150874264Y-67330613D01*
X150264539Y-67104092D01*
X149614540Y-67128144D01*
X149125736Y-67330613D01*
X149027073Y-67597468D01*
X144832809Y-67597468D01*
X144664404Y-67428769D01*
X144104472Y-67196265D01*
X143498188Y-67195736D01*
X142937851Y-67427262D01*
X142508769Y-67855596D01*
X142276265Y-68415528D01*
X142275736Y-69021812D01*
X139634964Y-69021812D01*
X139634705Y-68474928D01*
X139158564Y-67325421D01*
X138735880Y-67043725D01*
X136679605Y-69100000D01*
X136320395Y-69100000D01*
X134264120Y-67043725D01*
X133841436Y-67325421D01*
X133364706Y-68477892D01*
X129394625Y-68477892D01*
X130610402Y-67199231D01*
X133069931Y-66710000D01*
X134546438Y-66710000D01*
X134443725Y-66864120D01*
X134443725Y-66864120D01*
G37*
X134443725Y-66864120D02*
X136500000Y-68920395D01*
X138556275Y-66864120D01*
X138453562Y-66710000D01*
X156580981Y-66710000D01*
X158493098Y-66716228D01*
X158302053Y-66843880D01*
X157947630Y-67374313D01*
X157823173Y-68000000D01*
X157947630Y-68625687D01*
X158302053Y-69156120D01*
X158832486Y-69510543D01*
X159458173Y-69635000D01*
X160541827Y-69635000D01*
X161167514Y-69510543D01*
X161689315Y-69161887D01*
X161738633Y-76904771D01*
X161697947Y-76843880D01*
X161167514Y-76489457D01*
X160541827Y-76365000D01*
X159458173Y-76365000D01*
X158832486Y-76489457D01*
X158302053Y-76843880D01*
X157947630Y-77374313D01*
X157823173Y-78000000D01*
X157947630Y-78625687D01*
X158302053Y-79156120D01*
X158832486Y-79510543D01*
X159458173Y-79635000D01*
X160541827Y-79635000D01*
X161167514Y-79510543D01*
X161697947Y-79156120D01*
X161752454Y-79074545D01*
X161790000Y-84969323D01*
X161790000Y-84981647D01*
X161697947Y-84843880D01*
X161167514Y-84489457D01*
X160541827Y-84365000D01*
X159458173Y-84365000D01*
X158832486Y-84489457D01*
X158302053Y-84843880D01*
X157947630Y-85374313D01*
X157823173Y-86000000D01*
X157947630Y-86625687D01*
X158302053Y-87156120D01*
X158832486Y-87510543D01*
X159458173Y-87635000D01*
X160541827Y-87635000D01*
X161167514Y-87510543D01*
X161697947Y-87156120D01*
X161790000Y-87018353D01*
X161790000Y-94981647D01*
X161697947Y-94843880D01*
X161167514Y-94489457D01*
X160541827Y-94365000D01*
X159458173Y-94365000D01*
X158832486Y-94489457D01*
X158302053Y-94843880D01*
X157947630Y-95374313D01*
X157823173Y-96000000D01*
X157947630Y-96625687D01*
X158302053Y-97156120D01*
X158832486Y-97510543D01*
X159458173Y-97635000D01*
X160541827Y-97635000D01*
X161167514Y-97510543D01*
X161697947Y-97156120D01*
X161790000Y-97018353D01*
X161790000Y-102981647D01*
X161697947Y-102843880D01*
X161167514Y-102489457D01*
X160541827Y-102365000D01*
X159458173Y-102365000D01*
X158832486Y-102489457D01*
X158302053Y-102843880D01*
X157947630Y-103374313D01*
X157823173Y-104000000D01*
X157947630Y-104625687D01*
X158302053Y-105156120D01*
X158832486Y-105510543D01*
X159458173Y-105635000D01*
X160541827Y-105635000D01*
X161167514Y-105510543D01*
X161697947Y-105156120D01*
X161790000Y-105018353D01*
X161790000Y-112981647D01*
X161697947Y-112843880D01*
X161167514Y-112489457D01*
X160541827Y-112365000D01*
X159458173Y-112365000D01*
X158832486Y-112489457D01*
X158302053Y-112843880D01*
X157947630Y-113374313D01*
X157823173Y-114000000D01*
X157947630Y-114625687D01*
X158302053Y-115156120D01*
X158502419Y-115290000D01*
X152646546Y-115290000D01*
X116256315Y-114873636D01*
X115005423Y-113513970D01*
X125565635Y-113513970D01*
X125725418Y-113832739D01*
X126516187Y-114142723D01*
X127365387Y-114126497D01*
X127956109Y-113881812D01*
X142175736Y-113881812D01*
X142407262Y-114442149D01*
X142835596Y-114871231D01*
X143395528Y-115103735D01*
X144001812Y-115104264D01*
X144562149Y-114872738D01*
X144991231Y-114444404D01*
X145223735Y-113884472D01*
X145224006Y-113573795D01*
X148364716Y-113573795D01*
X148613106Y-114174943D01*
X149072637Y-114635278D01*
X149673352Y-114884716D01*
X150323795Y-114885284D01*
X150924943Y-114636894D01*
X151385278Y-114177363D01*
X151634716Y-113576648D01*
X151635284Y-112926205D01*
X151386894Y-112325057D01*
X150927363Y-111864722D01*
X150326648Y-111615284D01*
X149676205Y-111614716D01*
X149075057Y-111863106D01*
X148614722Y-112322637D01*
X148365284Y-112923352D01*
X148364716Y-113573795D01*
X145224006Y-113573795D01*
X145224264Y-113278188D01*
X144992738Y-112717851D01*
X144564404Y-112288769D01*
X144004472Y-112056265D01*
X143398188Y-112055736D01*
X142837851Y-112287262D01*
X142408769Y-112715596D01*
X142176265Y-113275528D01*
X142175736Y-113881812D01*
X127956109Y-113881812D01*
X128074582Y-113832739D01*
X128234365Y-113513970D01*
X126900000Y-112179605D01*
X125565635Y-113513970D01*
X115005423Y-113513970D01*
X114026643Y-112450079D01*
X114020623Y-111616187D01*
X124757277Y-111616187D01*
X124773503Y-112465387D01*
X125067261Y-113174582D01*
X125386030Y-113334365D01*
X126720395Y-112000000D01*
X127079605Y-112000000D01*
X128413970Y-113334365D01*
X128732739Y-113174582D01*
X129042723Y-112383813D01*
X129026497Y-111534613D01*
X128732739Y-110825418D01*
X128413970Y-110665635D01*
X127079605Y-112000000D01*
X126720395Y-112000000D01*
X125386030Y-110665635D01*
X125067261Y-110825418D01*
X124757277Y-111616187D01*
X114020623Y-111616187D01*
X114012464Y-110486030D01*
X125565635Y-110486030D01*
X126900000Y-111820395D01*
X128234365Y-110486030D01*
X128074582Y-110167261D01*
X127283813Y-109857277D01*
X126434613Y-109873503D01*
X125725418Y-110167261D01*
X125565635Y-110486030D01*
X114012464Y-110486030D01*
X114004073Y-109323795D01*
X148364716Y-109323795D01*
X148613106Y-109924943D01*
X149072637Y-110385278D01*
X149673352Y-110634716D01*
X150323795Y-110635284D01*
X150924943Y-110386894D01*
X151385278Y-109927363D01*
X151634716Y-109326648D01*
X151635284Y-108676205D01*
X151386894Y-108075057D01*
X150927363Y-107614722D01*
X150326648Y-107365284D01*
X149676205Y-107364716D01*
X149075057Y-107613106D01*
X148614722Y-108072637D01*
X148365284Y-108673352D01*
X148364716Y-109323795D01*
X114004073Y-109323795D01*
X113979371Y-105902532D01*
X149027073Y-105902532D01*
X149125736Y-106169387D01*
X149735461Y-106395908D01*
X150385460Y-106371856D01*
X150874264Y-106169387D01*
X150972927Y-105902532D01*
X150000000Y-104929605D01*
X149027073Y-105902532D01*
X113979371Y-105902532D01*
X113963625Y-103721812D01*
X142175736Y-103721812D01*
X142407262Y-104282149D01*
X142835596Y-104711231D01*
X143395528Y-104943735D01*
X144001812Y-104944264D01*
X144562149Y-104712738D01*
X144789822Y-104485461D01*
X148354092Y-104485461D01*
X148378144Y-105135460D01*
X148580613Y-105624264D01*
X148847468Y-105722927D01*
X149820395Y-104750000D01*
X150179605Y-104750000D01*
X151152532Y-105722927D01*
X151419387Y-105624264D01*
X151645908Y-105014539D01*
X151621856Y-104364540D01*
X151419387Y-103875736D01*
X151152532Y-103777073D01*
X150179605Y-104750000D01*
X149820395Y-104750000D01*
X148847468Y-103777073D01*
X148580613Y-103875736D01*
X148354092Y-104485461D01*
X144789822Y-104485461D01*
X144991231Y-104284404D01*
X145223735Y-103724472D01*
X145223845Y-103597468D01*
X149027073Y-103597468D01*
X150000000Y-104570395D01*
X150972927Y-103597468D01*
X150874264Y-103330613D01*
X150264539Y-103104092D01*
X149614540Y-103128144D01*
X149125736Y-103330613D01*
X149027073Y-103597468D01*
X145223845Y-103597468D01*
X145224264Y-103118188D01*
X144992738Y-102557851D01*
X144564404Y-102128769D01*
X144004472Y-101896265D01*
X143398188Y-101895736D01*
X142837851Y-102127262D01*
X142408769Y-102555596D01*
X142176265Y-103115528D01*
X142175736Y-103721812D01*
X113963625Y-103721812D01*
X113908462Y-96081812D01*
X142075736Y-96081812D01*
X142307262Y-96642149D01*
X142735596Y-97071231D01*
X143295528Y-97303735D01*
X143901812Y-97304264D01*
X144462149Y-97072738D01*
X144891231Y-96644404D01*
X145123735Y-96084472D01*
X145124180Y-95573795D01*
X148364716Y-95573795D01*
X148613106Y-96174943D01*
X149072637Y-96635278D01*
X149673352Y-96884716D01*
X150323795Y-96885284D01*
X150924943Y-96636894D01*
X151385278Y-96177363D01*
X151634716Y-95576648D01*
X151635284Y-94926205D01*
X151386894Y-94325057D01*
X150927363Y-93864722D01*
X150326648Y-93615284D01*
X149676205Y-93614716D01*
X149075057Y-93863106D01*
X148614722Y-94322637D01*
X148365284Y-94923352D01*
X148364716Y-95573795D01*
X145124180Y-95573795D01*
X145124264Y-95478188D01*
X144892738Y-94917851D01*
X144464404Y-94488769D01*
X143904472Y-94256265D01*
X143298188Y-94255736D01*
X142737851Y-94487262D01*
X142308769Y-94915596D01*
X142076265Y-95475528D01*
X142075736Y-96081812D01*
X113908462Y-96081812D01*
X113876722Y-91685880D01*
X114243725Y-91685880D01*
X114525421Y-92108564D01*
X115677892Y-92585294D01*
X116925072Y-92584705D01*
X117315909Y-92422815D01*
X124764630Y-92422815D01*
X125088980Y-93207800D01*
X125689041Y-93808909D01*
X126473459Y-94134628D01*
X127322815Y-94135370D01*
X128107800Y-93811020D01*
X128708909Y-93210959D01*
X129034628Y-92426541D01*
X129035370Y-91577185D01*
X128930672Y-91323795D01*
X148364716Y-91323795D01*
X148613106Y-91924943D01*
X149072637Y-92385278D01*
X149673352Y-92634716D01*
X150323795Y-92635284D01*
X150924943Y-92386894D01*
X151385278Y-91927363D01*
X151634716Y-91326648D01*
X151635284Y-90676205D01*
X151386894Y-90075057D01*
X150927363Y-89614722D01*
X150326648Y-89365284D01*
X149676205Y-89364716D01*
X149075057Y-89613106D01*
X148614722Y-90072637D01*
X148365284Y-90673352D01*
X148364716Y-91323795D01*
X128930672Y-91323795D01*
X128711020Y-90792200D01*
X128110959Y-90191091D01*
X127326541Y-89865372D01*
X126477185Y-89864630D01*
X125692200Y-90188980D01*
X125091091Y-90789041D01*
X124765372Y-91573459D01*
X124764630Y-92422815D01*
X117315909Y-92422815D01*
X118074579Y-92108564D01*
X118356275Y-91685880D01*
X116300000Y-89629605D01*
X114243725Y-91685880D01*
X113876722Y-91685880D01*
X113874512Y-91379911D01*
X114064120Y-91506275D01*
X116120395Y-89450000D01*
X116479605Y-89450000D01*
X118535880Y-91506275D01*
X118958564Y-91224579D01*
X119435294Y-90072108D01*
X119434705Y-88824928D01*
X119052637Y-87902532D01*
X149027073Y-87902532D01*
X149125736Y-88169387D01*
X149735461Y-88395908D01*
X150385460Y-88371856D01*
X150874264Y-88169387D01*
X150972927Y-87902532D01*
X150000000Y-86929605D01*
X149027073Y-87902532D01*
X119052637Y-87902532D01*
X118958564Y-87675421D01*
X118535880Y-87393725D01*
X116479605Y-89450000D01*
X116120395Y-89450000D01*
X114064120Y-87393725D01*
X113846777Y-87538573D01*
X113844435Y-87214120D01*
X114243725Y-87214120D01*
X116300000Y-89270395D01*
X118356275Y-87214120D01*
X118074579Y-86791436D01*
X116922108Y-86314706D01*
X115674928Y-86315295D01*
X114525421Y-86791436D01*
X114243725Y-87214120D01*
X113844435Y-87214120D01*
X113831753Y-85457836D01*
X113922822Y-85000000D01*
X127732968Y-85000000D01*
X127838395Y-85530017D01*
X128138625Y-85979343D01*
X128587951Y-86279573D01*
X129117968Y-86385000D01*
X129682032Y-86385000D01*
X130212049Y-86279573D01*
X130661375Y-85979343D01*
X130900000Y-85622215D01*
X131138625Y-85979343D01*
X131587951Y-86279573D01*
X132117968Y-86385000D01*
X132682032Y-86385000D01*
X133212049Y-86279573D01*
X133661375Y-85979343D01*
X133900000Y-85622215D01*
X134138625Y-85979343D01*
X134587951Y-86279573D01*
X135117968Y-86385000D01*
X135682032Y-86385000D01*
X136212049Y-86279573D01*
X136661375Y-85979343D01*
X136699815Y-85921812D01*
X142075736Y-85921812D01*
X142307262Y-86482149D01*
X142735596Y-86911231D01*
X143295528Y-87143735D01*
X143901812Y-87144264D01*
X144462149Y-86912738D01*
X144890172Y-86485461D01*
X148354092Y-86485461D01*
X148378144Y-87135460D01*
X148580613Y-87624264D01*
X148847468Y-87722927D01*
X149820395Y-86750000D01*
X150179605Y-86750000D01*
X151152532Y-87722927D01*
X151419387Y-87624264D01*
X151645908Y-87014539D01*
X151621856Y-86364540D01*
X151419387Y-85875736D01*
X151152532Y-85777073D01*
X150179605Y-86750000D01*
X149820395Y-86750000D01*
X148847468Y-85777073D01*
X148580613Y-85875736D01*
X148354092Y-86485461D01*
X144890172Y-86485461D01*
X144891231Y-86484404D01*
X145123735Y-85924472D01*
X145124020Y-85597468D01*
X149027073Y-85597468D01*
X150000000Y-86570395D01*
X150972927Y-85597468D01*
X150874264Y-85330613D01*
X150264539Y-85104092D01*
X149614540Y-85128144D01*
X149125736Y-85330613D01*
X149027073Y-85597468D01*
X145124020Y-85597468D01*
X145124264Y-85318188D01*
X144892738Y-84757851D01*
X144464404Y-84328769D01*
X143904472Y-84096265D01*
X143298188Y-84095736D01*
X142737851Y-84327262D01*
X142308769Y-84755596D01*
X142076265Y-85315528D01*
X142075736Y-85921812D01*
X136699815Y-85921812D01*
X136961605Y-85530017D01*
X137067032Y-85000000D01*
X136961605Y-84469983D01*
X136661375Y-84020657D01*
X136212049Y-83720427D01*
X135682032Y-83615000D01*
X135117968Y-83615000D01*
X134587951Y-83720427D01*
X134138625Y-84020657D01*
X133900000Y-84377785D01*
X133661375Y-84020657D01*
X133212049Y-83720427D01*
X132682032Y-83615000D01*
X132117968Y-83615000D01*
X131587951Y-83720427D01*
X131138625Y-84020657D01*
X130900000Y-84377785D01*
X130661375Y-84020657D01*
X130212049Y-83720427D01*
X129682032Y-83615000D01*
X129117968Y-83615000D01*
X128587951Y-83720427D01*
X128138625Y-84020657D01*
X127838395Y-84469983D01*
X127732968Y-85000000D01*
X113922822Y-85000000D01*
X113985716Y-84683814D01*
X119217127Y-79181812D01*
X142275736Y-79181812D01*
X142507262Y-79742149D01*
X142935596Y-80171231D01*
X143495528Y-80403735D01*
X144101812Y-80404264D01*
X144662149Y-80172738D01*
X145091231Y-79744404D01*
X145323735Y-79184472D01*
X145324264Y-78578188D01*
X145092738Y-78017851D01*
X144664404Y-77588769D01*
X144628343Y-77573795D01*
X148364716Y-77573795D01*
X148613106Y-78174943D01*
X149072637Y-78635278D01*
X149673352Y-78884716D01*
X150323795Y-78885284D01*
X150924943Y-78636894D01*
X151385278Y-78177363D01*
X151634716Y-77576648D01*
X151635284Y-76926205D01*
X151386894Y-76325057D01*
X150927363Y-75864722D01*
X150326648Y-75615284D01*
X149676205Y-75614716D01*
X149075057Y-75863106D01*
X148614722Y-76322637D01*
X148365284Y-76923352D01*
X148364716Y-77573795D01*
X144628343Y-77573795D01*
X144104472Y-77356265D01*
X143498188Y-77355736D01*
X142937851Y-77587262D01*
X142508769Y-78015596D01*
X142276265Y-78575528D01*
X142275736Y-79181812D01*
X119217127Y-79181812D01*
X124787044Y-73323795D01*
X148364716Y-73323795D01*
X148613106Y-73924943D01*
X149072637Y-74385278D01*
X149673352Y-74634716D01*
X150323795Y-74635284D01*
X150924943Y-74386894D01*
X151385278Y-73927363D01*
X151634716Y-73326648D01*
X151635284Y-72676205D01*
X151386894Y-72075057D01*
X150927363Y-71614722D01*
X150326648Y-71365284D01*
X149676205Y-71364716D01*
X149075057Y-71613106D01*
X148614722Y-72072637D01*
X148365284Y-72673352D01*
X148364716Y-73323795D01*
X124787044Y-73323795D01*
X126677193Y-71335880D01*
X134443725Y-71335880D01*
X134725421Y-71758564D01*
X135877892Y-72235294D01*
X137125072Y-72234705D01*
X138274579Y-71758564D01*
X138556275Y-71335880D01*
X136500000Y-69279605D01*
X134443725Y-71335880D01*
X126677193Y-71335880D01*
X129394625Y-68477892D01*
X133364706Y-68477892D01*
X133365295Y-69725072D01*
X133841436Y-70874579D01*
X134264120Y-71156275D01*
X136320395Y-69100000D01*
X136679605Y-69100000D01*
X138735880Y-71156275D01*
X139158564Y-70874579D01*
X139635294Y-69722108D01*
X139634964Y-69021812D01*
X142275736Y-69021812D01*
X142507262Y-69582149D01*
X142935596Y-70011231D01*
X143495528Y-70243735D01*
X144101812Y-70244264D01*
X144662149Y-70012738D01*
X144772547Y-69902532D01*
X149027073Y-69902532D01*
X149125736Y-70169387D01*
X149735461Y-70395908D01*
X150385460Y-70371856D01*
X150874264Y-70169387D01*
X150972927Y-69902532D01*
X150000000Y-68929605D01*
X149027073Y-69902532D01*
X144772547Y-69902532D01*
X145091231Y-69584404D01*
X145323735Y-69024472D01*
X145324205Y-68485461D01*
X148354092Y-68485461D01*
X148378144Y-69135460D01*
X148580613Y-69624264D01*
X148847468Y-69722927D01*
X149820395Y-68750000D01*
X150179605Y-68750000D01*
X151152532Y-69722927D01*
X151419387Y-69624264D01*
X151645908Y-69014539D01*
X151621856Y-68364540D01*
X151419387Y-67875736D01*
X151152532Y-67777073D01*
X150179605Y-68750000D01*
X149820395Y-68750000D01*
X148847468Y-67777073D01*
X148580613Y-67875736D01*
X148354092Y-68485461D01*
X145324205Y-68485461D01*
X145324264Y-68418188D01*
X145092738Y-67857851D01*
X144832809Y-67597468D01*
X149027073Y-67597468D01*
X150000000Y-68570395D01*
X150972927Y-67597468D01*
X150874264Y-67330613D01*
X150264539Y-67104092D01*
X149614540Y-67128144D01*
X149125736Y-67330613D01*
X149027073Y-67597468D01*
X144832809Y-67597468D01*
X144664404Y-67428769D01*
X144104472Y-67196265D01*
X143498188Y-67195736D01*
X142937851Y-67427262D01*
X142508769Y-67855596D01*
X142276265Y-68415528D01*
X142275736Y-69021812D01*
X139634964Y-69021812D01*
X139634705Y-68474928D01*
X139158564Y-67325421D01*
X138735880Y-67043725D01*
X136679605Y-69100000D01*
X136320395Y-69100000D01*
X134264120Y-67043725D01*
X133841436Y-67325421D01*
X133364706Y-68477892D01*
X129394625Y-68477892D01*
X130610402Y-67199231D01*
X133069931Y-66710000D01*
X134546438Y-66710000D01*
X134443725Y-66864120D01*
M02*
