G04 #@! TF.FileFunction,Soldermask,Top*
%FSLAX46Y46*%
G04 Gerber Fmt 4.6, Leading zero omitted, Abs format (unit mm)*
G04 Created by KiCad (PCBNEW 4.0.4+e1-6308~48~ubuntu15.10.1-stable) date Wed Sep 27 09:28:55 2017*
%MOMM*%
%LPD*%
G01*
G04 APERTURE LIST*
%ADD10C,0.150000*%
%ADD11C,3.400000*%
%ADD12C,2.127200*%
%ADD13O,2.400000X1.900000*%
%ADD14C,2.178000*%
%ADD15R,1.924000X2.400000*%
%ADD16C,2.400000*%
%ADD17O,3.400000X2.400000*%
%ADD18C,5.400000*%
G04 APERTURE END LIST*
D10*
D11*
X126900000Y-92000000D03*
X126900000Y-112000000D03*
D10*
G36*
X118413686Y-78205998D02*
X116694002Y-76486314D01*
X118198160Y-74982156D01*
X119917844Y-76701840D01*
X118413686Y-78205998D01*
X118413686Y-78205998D01*
G37*
D12*
X119994211Y-74690263D02*
X120209737Y-74905789D01*
X121790263Y-72894211D02*
X122005789Y-73109737D01*
X123586314Y-71098160D02*
X123801840Y-71313686D01*
D13*
X135400000Y-85000000D03*
X132400000Y-85000000D03*
X129400000Y-85000000D03*
D14*
X143700000Y-103420000D03*
X143700000Y-113580000D03*
D15*
X143700000Y-106500000D03*
X143700000Y-110500000D03*
D14*
X143800000Y-68720000D03*
X143800000Y-78880000D03*
D15*
X143800000Y-71800000D03*
X143800000Y-75800000D03*
D14*
X143600000Y-85620000D03*
X143600000Y-95780000D03*
D15*
X143600000Y-88700000D03*
X143600000Y-92700000D03*
D16*
X150000000Y-104750000D03*
X150000000Y-109000000D03*
X150000000Y-113250000D03*
D17*
X160000000Y-114000000D03*
X160000000Y-104000000D03*
D16*
X150000000Y-68750000D03*
X150000000Y-73000000D03*
X150000000Y-77250000D03*
D17*
X160000000Y-78000000D03*
X160000000Y-68000000D03*
D16*
X150000000Y-86750000D03*
X150000000Y-91000000D03*
X150000000Y-95250000D03*
D17*
X160000000Y-96000000D03*
X160000000Y-86000000D03*
D18*
X116300000Y-89450000D03*
X136500000Y-69100000D03*
M02*
