M48
;DRILL file {KiCad 4.0.4+e1-6308~48~ubuntu15.10.1-stable} date Wed Sep 27 09:28:58 2017
;FORMAT={-:-/ absolute / metric / decimal}
FMAT,2
METRIC,TZ
T1C0.600
T2C0.800
T3C0.813
T4C1.000
T5C1.016
T6C3.000
%
G90
G05
M71
T3
X143.6Y-85.62
X143.6Y-95.78
X143.7Y-103.42
X143.7Y-113.58
X143.8Y-68.72
X143.8Y-78.88
T4
X150.Y-68.75
X150.Y-73.
X150.Y-77.25
X150.Y-86.75
X150.Y-91.
X150.Y-95.25
X150.Y-104.75
X150.Y-109.
X150.Y-113.25
T5
X118.306Y-76.594
X120.102Y-74.798
X121.898Y-73.002
X123.694Y-71.206
T6
X116.3Y-89.45
X136.5Y-69.1
T1
X160.35Y-68.G85X159.65Y-68.
G05
X160.35Y-78.G85X159.65Y-78.
G05
X160.35Y-86.G85X159.65Y-86.
G05
X160.35Y-96.G85X159.65Y-96.
G05
X160.35Y-104.G85X159.65Y-104.
G05
X160.35Y-114.G85X159.65Y-114.
G05
T2
X127.25Y-92.G85X126.55Y-92.
G05
X127.25Y-112.G85X126.55Y-112.
G05
T4
X129.65Y-85.G85X129.15Y-85.
G05
X132.65Y-85.G85X132.15Y-85.
G05
X135.65Y-85.G85X135.15Y-85.
G05
T0
M30
